<svg width="15" height="16" viewBox="0 0 15 16" fill="none" xmlns="http://www.w3.org/2000/svg">
<path d="M10.4268 3.86458C10.0225 3.86458 9.64523 3.92656 9.29488 4.05053C8.94993 4.1745 8.63462 4.29847 8.34895 4.42244C8.06328 4.54101 7.81535 4.6003 7.60514 4.6003C7.38415 4.6003 7.13891 4.54371 6.86942 4.43052C6.59992 4.31194 6.30886 4.19606 5.99625 4.08287C5.68902 3.96968 5.36024 3.91309 5.00989 3.91309C4.34693 3.91309 3.70822 4.09365 3.09377 4.45478C2.47932 4.8159 1.97536 5.3495 1.5819 6.05558C1.18843 6.76166 0.991699 7.63214 0.991699 8.667C0.991699 9.31379 1.06716 9.96059 1.21808 10.6074C1.36899 11.2542 1.57112 11.8659 1.82444 12.4426C2.07777 13.0194 2.35805 13.5287 2.66527 13.9707C3.06413 14.5259 3.4522 15.0029 3.8295 15.4017C4.21218 15.8006 4.65416 16 5.15542 16C5.4842 16 5.76987 15.9461 6.01242 15.8383C6.25496 15.7305 6.51099 15.62 6.78048 15.5068C7.05537 15.399 7.39763 15.3451 7.80726 15.3451C8.11988 15.3451 8.38129 15.3775 8.5915 15.4421C8.8017 15.5068 8.99305 15.5796 9.16552 15.6604C9.34339 15.7467 9.52934 15.8221 9.72338 15.8868C9.91742 15.9515 10.1519 15.9838 10.4268 15.9838C10.7879 15.9838 11.1113 15.8868 11.397 15.6928C11.688 15.5041 11.9548 15.2589 12.1974 14.957C12.4453 14.6552 12.6851 14.3399 12.9169 14.0111C13.1702 13.6392 13.3751 13.2835 13.5314 12.9439C13.6931 12.599 13.8116 12.3187 13.8871 12.1031C13.9626 11.8821 14.003 11.7608 14.0084 11.7393C13.9922 11.7339 13.8736 11.6746 13.6526 11.5614C13.437 11.4428 13.1891 11.2569 12.9088 11.0035C12.6339 10.7502 12.3914 10.4187 12.1812 10.0091C11.9764 9.59946 11.874 9.0982 11.874 8.50531C11.874 7.98787 11.9548 7.5432 12.1165 7.1713C12.2836 6.794 12.4776 6.48408 12.6986 6.24154C12.9196 5.9936 13.1163 5.80495 13.2888 5.67559C13.4667 5.54624 13.5691 5.47347 13.596 5.4573C13.3265 5.06923 13.0328 4.76739 12.7148 4.55179C12.3968 4.3362 12.0842 4.17989 11.7769 4.08287C11.4697 3.98585 11.1948 3.92656 10.9523 3.905C10.7151 3.87805 10.54 3.86458 10.4268 3.86458ZM9.86083 2.55483C10.1088 2.25838 10.3109 1.91612 10.4672 1.52804C10.6235 1.13458 10.7017 0.730335 10.7017 0.315311C10.7017 0.196732 10.6936 0.0916288 10.6774 0C10.2732 0.0161698 9.85005 0.137443 9.40807 0.36382C8.97149 0.590197 8.61036 0.873168 8.3247 1.21273C8.09293 1.47145 7.88811 1.79485 7.71024 2.18292C7.53238 2.571 7.44344 2.96985 7.44344 3.37948C7.44344 3.44416 7.44614 3.50345 7.45153 3.55735C7.46231 3.61125 7.47039 3.64898 7.47578 3.67054C7.54585 3.68671 7.61862 3.6948 7.69407 3.6948C8.0552 3.6948 8.43788 3.587 8.84213 3.3714C9.25176 3.1558 9.59133 2.88361 9.86083 2.55483Z" fill="white"/>
</svg>
