<svg width="50" height="49" viewBox="0 0 50 49" fill="none" xmlns="http://www.w3.org/2000/svg">
<path d="M21.1971 41.6899C-6.82878 41.951 -6.54578 7.52783 21.1971 7.60755V11.0093C5.42182 11.4445 1.06997 34.7269 21.1971 38.2084H28.3777C48.5052 34.9445 44.3709 11.6621 28.3777 11.0093V7.52783C56.4473 7.60755 57.2089 41.6899 28.3777 41.6899H21.1971Z" fill="url(#paint0_linear_1549_1412)" stroke="white" stroke-width="0.494327"/>
<path d="M34.6881 1H14.8872C14.0168 1.43519 14.2344 2.63194 14.6696 3.06713H18.1511C20.0007 3.06713 21.0523 5.67824 21.1974 6.9838V7.52778V41.9074C21.1974 44.5185 19.3841 45.7515 18.4775 46.0417H14.6696C14.1256 46.6944 14.3432 47.7824 14.996 48H34.5793C35.3409 47.456 35.2321 46.4769 34.7969 46.0417H31.6418C29.3789 46.0417 28.523 43.5031 28.378 42.2338V6.9838C28.378 4.54676 30.1912 3.35725 31.0979 3.06713L34.6881 2.95833C35.3409 2.52315 35.3409 1.43519 34.6881 1Z" fill="url(#paint1_linear_1549_1412)" stroke="white" stroke-width="0.494327"/>
<defs>
<linearGradient id="paint0_linear_1549_1412" x1="0.199597" y1="24.6089" x2="49.3755" y2="24.2825" gradientUnits="userSpaceOnUse">
<stop stop-color="#E27EAC"/>
<stop offset="1" stop-color="#A35CE3"/>
</linearGradient>
<linearGradient id="paint1_linear_1549_1412" x1="14.2888" y1="48" x2="49.1754" y2="32.4948" gradientUnits="userSpaceOnUse">
<stop stop-color="#3796E5"/>
<stop offset="1" stop-color="#46ECE3"/>
</linearGradient>
</defs>
</svg>
