<svg width="212" height="49" viewBox="0 0 212 49" fill="none" xmlns="http://www.w3.org/2000/svg">
<path d="M22.1534 41.6568C-6.19409 41.921 -5.90784 7.10278 22.1534 7.18342V10.6242C6.19709 11.0644 1.7953 34.614 22.1534 38.1354H29.4164C49.7748 34.8341 45.5931 11.2845 29.4164 10.6242V7.10278C57.8081 7.18342 58.5784 41.6568 29.4164 41.6568H22.1534Z" fill="url(#paint0_linear_1496_1008)" stroke="white" stroke-width="0.5"/>
<path d="M35.7994 0.5H15.7713C14.8909 0.940179 15.111 2.15067 15.5512 2.59085H19.0726C20.9434 2.59085 22.0071 5.23193 22.1539 6.55246V7.10269V41.8768C22.1539 44.5179 20.3198 45.7651 19.4027 46.0585H15.5512C15.0009 46.7188 15.221 47.8193 15.8813 48.0393H35.6894C36.4597 47.4891 36.3496 46.4987 35.9095 46.0585H32.7182C30.4292 46.0585 29.5636 43.4908 29.4168 42.207V6.55246C29.4168 4.08746 31.2509 2.8843 32.1679 2.59085L35.7994 2.48081C36.4597 2.04063 36.4597 0.940179 35.7994 0.5Z" fill="url(#paint1_linear_1496_1008)" stroke="white" stroke-width="0.5"/>
<path d="M72.6975 30.5V17.4091H81.0838V19.397H75.0689V22.951H80.5086V24.9389H75.0689V30.5H72.6975ZM83.3221 30.5V20.6818H85.636V30.5H83.3221ZM84.4854 19.2884C84.119 19.2884 83.8036 19.1669 83.5394 18.924C83.2752 18.6768 83.1431 18.3807 83.1431 18.0355C83.1431 17.6861 83.2752 17.3899 83.5394 17.147C83.8036 16.8999 84.119 16.7763 84.4854 16.7763C84.8562 16.7763 85.1715 16.8999 85.4315 17.147C85.6957 17.3899 85.8278 17.6861 85.8278 18.0355C85.8278 18.3807 85.6957 18.6768 85.4315 18.924C85.1715 19.1669 84.8562 19.2884 84.4854 19.2884ZM88.2977 30.5V17.4091H90.6116V22.3054H90.7075C90.8268 22.0668 90.9952 21.8132 91.2125 21.5447C91.4298 21.272 91.7239 21.0398 92.0946 20.848C92.4653 20.652 92.9383 20.554 93.5136 20.554C94.2721 20.554 94.9561 20.7479 95.5655 21.1357C96.1791 21.5192 96.6649 22.0881 97.0229 22.8423C97.3851 23.5923 97.5662 24.5128 97.5662 25.6037C97.5662 26.6818 97.3893 27.598 97.0356 28.3523C96.6819 29.1065 96.2004 29.6818 95.591 30.0781C94.9817 30.4744 94.2913 30.6726 93.52 30.6726C92.9575 30.6726 92.4909 30.5788 92.1202 30.3913C91.7494 30.2038 91.4511 29.978 91.2253 29.7138C91.0037 29.4453 90.8311 29.1918 90.7075 28.9531H90.5733V30.5H88.2977ZM90.5669 25.5909C90.5669 26.2259 90.6564 26.782 90.8354 27.2592C91.0186 27.7365 91.2807 28.1094 91.6216 28.3778C91.9668 28.642 92.3844 28.7741 92.8744 28.7741C93.3858 28.7741 93.8141 28.6378 94.1592 28.3651C94.5044 28.0881 94.7643 27.7109 94.9391 27.2337C95.118 26.7521 95.2075 26.2045 95.2075 25.5909C95.2075 24.9815 95.1202 24.4403 94.9454 23.9673C94.7707 23.4943 94.5108 23.1236 94.1656 22.8551C93.8204 22.5866 93.39 22.4524 92.8744 22.4524C92.3801 22.4524 91.9604 22.5824 91.6152 22.8423C91.27 23.1023 91.0079 23.4666 90.829 23.9354C90.6543 24.4041 90.5669 24.956 90.5669 25.5909ZM107.473 23.277L105.364 23.5071C105.304 23.294 105.2 23.0938 105.051 22.9062C104.906 22.7188 104.71 22.5675 104.463 22.4524C104.215 22.3374 103.913 22.2798 103.555 22.2798C103.073 22.2798 102.669 22.3842 102.34 22.593C102.017 22.8018 101.857 23.0724 101.861 23.4048C101.857 23.6903 101.961 23.9226 102.174 24.1016C102.392 24.2805 102.75 24.4276 103.248 24.5426L104.923 24.9006C105.852 25.1009 106.542 25.4183 106.994 25.853C107.45 26.2876 107.68 26.8565 107.684 27.5597C107.68 28.1776 107.499 28.723 107.141 29.196C106.787 29.6648 106.295 30.0312 105.664 30.2955C105.034 30.5597 104.309 30.6918 103.491 30.6918C102.289 30.6918 101.322 30.4403 100.589 29.9375C99.8561 29.4304 99.4193 28.7251 99.2787 27.8217L101.535 27.6044C101.637 28.0476 101.855 28.3821 102.187 28.608C102.519 28.8338 102.952 28.9467 103.485 28.9467C104.034 28.9467 104.475 28.8338 104.808 28.608C105.144 28.3821 105.313 28.103 105.313 27.7706C105.313 27.4893 105.204 27.2571 104.987 27.0739C104.774 26.8906 104.441 26.75 103.99 26.652L102.315 26.3004C101.373 26.1044 100.676 25.7741 100.225 25.3097C99.773 24.8409 99.5493 24.2486 99.5535 23.5327C99.5493 22.9276 99.7133 22.4034 100.046 21.9602C100.382 21.5128 100.849 21.1676 101.446 20.9247C102.046 20.6776 102.739 20.554 103.523 20.554C104.674 20.554 105.579 20.799 106.24 21.2891C106.904 21.7791 107.316 22.4418 107.473 23.277ZM111.799 30.5L109.024 20.6818H111.383L113.109 27.5852H113.198L114.963 20.6818H117.296L119.06 27.5469H119.156L120.856 20.6818H123.221L120.441 30.5H118.031L116.19 23.8651H116.056L114.215 30.5H111.799ZM127.842 30.6982C127.22 30.6982 126.659 30.5874 126.161 30.3658C125.667 30.1399 125.275 29.8075 124.985 29.3686C124.699 28.9297 124.556 28.3885 124.556 27.745C124.556 27.1911 124.659 26.733 124.863 26.3707C125.068 26.0085 125.347 25.7188 125.701 25.5014C126.054 25.2841 126.453 25.12 126.896 25.0092C127.343 24.8942 127.806 24.8111 128.283 24.7599C128.858 24.7003 129.325 24.647 129.683 24.6001C130.041 24.549 130.301 24.4723 130.463 24.37C130.629 24.2635 130.712 24.0994 130.712 23.8778V23.8395C130.712 23.358 130.569 22.9851 130.284 22.7209C129.998 22.4567 129.587 22.3246 129.05 22.3246C128.483 22.3246 128.034 22.4482 127.701 22.6953C127.373 22.9425 127.152 23.2344 127.037 23.571L124.876 23.2642C125.047 22.6676 125.328 22.169 125.72 21.7685C126.112 21.3636 126.591 21.0611 127.158 20.8608C127.725 20.6562 128.351 20.554 129.037 20.554C129.51 20.554 129.981 20.6094 130.45 20.7202C130.919 20.831 131.347 21.0142 131.735 21.2699C132.123 21.5213 132.434 21.8643 132.668 22.299C132.907 22.7337 133.026 23.277 133.026 23.929V30.5H130.801V29.1513H130.725C130.584 29.424 130.386 29.6797 130.13 29.9183C129.879 30.1527 129.561 30.3423 129.178 30.4872C128.799 30.6278 128.353 30.6982 127.842 30.6982ZM128.443 28.9979C128.907 28.9979 129.31 28.9062 129.651 28.723C129.992 28.5355 130.254 28.2884 130.437 27.9815C130.625 27.6747 130.718 27.3402 130.718 26.978V25.821C130.646 25.8807 130.522 25.9361 130.348 25.9872C130.177 26.0384 129.985 26.0831 129.772 26.1214C129.559 26.1598 129.348 26.1939 129.14 26.2237C128.931 26.2536 128.75 26.2791 128.596 26.3004C128.251 26.3473 127.942 26.424 127.669 26.5305C127.397 26.6371 127.181 26.7862 127.024 26.978C126.866 27.1655 126.787 27.4084 126.787 27.7067C126.787 28.1328 126.943 28.4545 127.254 28.6719C127.565 28.8892 127.961 28.9979 128.443 28.9979ZM135.533 34.1818V20.6818H137.808V22.3054H137.942C138.062 22.0668 138.23 21.8132 138.447 21.5447C138.665 21.272 138.959 21.0398 139.33 20.848C139.7 20.652 140.173 20.554 140.749 20.554C141.507 20.554 142.191 20.7479 142.8 21.1357C143.414 21.5192 143.9 22.0881 144.258 22.8423C144.62 23.5923 144.801 24.5128 144.801 25.6037C144.801 26.6818 144.624 27.598 144.271 28.3523C143.917 29.1065 143.435 29.6818 142.826 30.0781C142.217 30.4744 141.526 30.6726 140.755 30.6726C140.192 30.6726 139.726 30.5788 139.355 30.3913C138.984 30.2038 138.686 29.978 138.46 29.7138C138.239 29.4453 138.066 29.1918 137.942 28.9531H137.847V34.1818H135.533ZM137.802 25.5909C137.802 26.2259 137.891 26.782 138.07 27.2592C138.254 27.7365 138.516 28.1094 138.856 28.3778C139.202 28.642 139.619 28.7741 140.109 28.7741C140.621 28.7741 141.049 28.6378 141.394 28.3651C141.739 28.0881 141.999 27.7109 142.174 27.2337C142.353 26.7521 142.442 26.2045 142.442 25.5909C142.442 24.9815 142.355 24.4403 142.18 23.9673C142.006 23.4943 141.746 23.1236 141.401 22.8551C141.055 22.5866 140.625 22.4524 140.109 22.4524C139.615 22.4524 139.195 22.5824 138.85 22.8423C138.505 23.1023 138.243 23.4666 138.064 23.9354C137.889 24.4041 137.802 24.956 137.802 25.5909Z" fill="white"/>
<defs>
<linearGradient id="paint0_linear_1496_1008" x1="0.914941" y1="24.3798" x2="50.6552" y2="24.0497" gradientUnits="userSpaceOnUse">
<stop stop-color="#E27EAC"/>
<stop offset="1" stop-color="#A35CE3"/>
</linearGradient>
<linearGradient id="paint1_linear_1496_1008" x1="15.166" y1="48.0393" x2="50.453" y2="32.3562" gradientUnits="userSpaceOnUse">
<stop stop-color="#3796E5"/>
<stop offset="1" stop-color="#46ECE3"/>
</linearGradient>
</defs>
</svg>
