<svg width="143" height="151" viewBox="0 0 143 151" fill="none" xmlns="http://www.w3.org/2000/svg">
<path d="M29.5361 150.059H112.655C117.758 150.059 121.778 148.564 124.716 145.574C127.706 142.636 129.201 138.615 129.201 133.512V75.5225H131.907C135.103 75.5225 137.629 74.5431 139.485 72.5844C141.34 70.5741 142.268 67.971 142.268 64.7751V48.9246C142.268 45.6771 141.34 43.0998 139.485 41.1926C137.629 39.2339 135.103 38.2545 131.907 38.2545H105.155C108.247 36.2957 110.67 33.7442 112.423 30.5998C114.175 27.4555 115.052 23.8473 115.052 19.7751C115.052 15.806 114.149 12.3524 112.345 9.41426C110.593 6.47612 108.144 4.1823 105 2.53282C101.856 0.883336 98.1701 0.0585938 93.9433 0.0585938C88.3247 0.0585938 83.5052 1.6823 79.4845 4.92973C75.4639 8.1256 72.6546 12.4555 71.0567 17.9194C69.5103 12.4555 66.7268 8.1256 62.7062 4.92973C58.7371 1.6823 53.8918 0.0585938 48.1701 0.0585938C43.9948 0.0585938 40.3093 0.883336 37.1134 2.53282C33.9691 4.1823 31.5206 6.47612 29.768 9.41426C28.0155 12.3524 27.1392 15.806 27.1392 19.7751C27.1392 23.8473 28.0155 27.4555 29.768 30.5998C31.5722 33.7442 34.0206 36.2957 37.1134 38.2545H10.3608C7.1134 38.2545 4.56186 39.2339 2.70619 41.1926C0.902062 43.0998 0 45.6771 0 48.9246V64.7751C0 67.971 0.927835 70.5741 2.78351 72.5844C4.63918 74.5431 7.16495 75.5225 10.3608 75.5225H13.067V133.512C13.067 138.615 14.5361 142.636 17.4742 145.574C20.4124 148.564 24.433 150.059 29.5361 150.059ZM66.1856 146.347H29.768C25.5928 146.347 22.3969 145.239 20.1804 143.023C17.9639 140.858 16.8557 137.662 16.8557 133.435V75.5225H66.1856V146.347ZM76.0052 146.347V75.5225H125.335V133.435C125.335 137.662 124.227 140.858 122.01 143.023C119.794 145.239 116.624 146.347 112.5 146.347H76.0052ZM66.1856 71.6565H10.2835C8.22165 71.6565 6.62371 71.038 5.48969 69.8009C4.40722 68.5122 3.86598 66.8627 3.86598 64.8524V48.8473C3.86598 46.8369 4.40722 45.2132 5.48969 43.9761C6.62371 42.6875 8.22165 42.0431 10.2835 42.0431H66.1856V71.6565ZM76.0052 71.6565V42.0431H131.985C133.995 42.0431 135.567 42.6875 136.701 43.9761C137.835 45.2132 138.402 46.8369 138.402 48.8473V64.8524C138.402 66.8627 137.835 68.5122 136.701 69.8009C135.567 71.038 133.995 71.6565 131.985 71.6565H76.0052ZM66.8041 38.2545H58.7629C51.6495 38.2545 45.9021 36.5534 41.5206 33.1514C37.1907 29.6978 35.0258 25.1875 35.0258 19.6204C35.0258 16.0122 36.2371 13.1256 38.6598 10.9607C41.0825 8.74416 44.2526 7.63591 48.1701 7.63591C53.7887 7.63591 58.299 9.74932 61.701 13.9761C65.1031 18.1514 66.8041 23.6668 66.8041 30.5225V38.2545ZM75.3866 38.2545V30.5225C75.3866 23.6668 77.0876 18.1514 80.4897 13.9761C83.8918 9.74932 88.3763 7.63591 93.9433 7.63591C97.9124 7.63591 101.108 8.74416 103.531 10.9607C106.005 13.1256 107.242 16.0122 107.242 19.6204C107.242 25.1875 105.052 29.6978 100.67 33.1514C96.3402 36.5534 90.6186 38.2545 83.5052 38.2545H75.3866Z" fill="url(#paint0_linear_723_1143)"/>
<defs>
<linearGradient id="paint0_linear_723_1143" x1="-0.242023" y1="75.0554" x2="141.29" y2="74.4396" gradientUnits="userSpaceOnUse">
<stop stop-color="#E27EAC"/>
<stop offset="1" stop-color="#A35CE3"/>
</linearGradient>
</defs>
</svg>
