<svg width="35" height="30" viewBox="0 0 35 30" fill="none" xmlns="http://www.w3.org/2000/svg">
<path d="M17.6113 1.7072e-06C17.4512 -0.000284262 17.293 0.0353599 17.1484 0.10431C17.0038 0.17326 16.8766 0.27376 16.776 0.398409L16.5853 0.53978C12.8904 -0.604036 8.67502 0.235619 5.74051 3.06303C4.51164 4.22909 3.59745 5.68686 3.08291 7.30088C2.56837 8.91491 2.47017 10.6328 2.79743 12.295C2.76106 12.3271 2.72535 12.3599 2.69033 12.3935L1.02173 14C0.698957 14.3062 0.441907 14.6749 0.266248 15.0836C0.0905895 15.4924 0 15.9327 0 16.3776C0 16.8225 0.0905895 17.2627 0.266248 17.6715C0.441907 18.0802 0.698957 18.449 1.02173 18.7552C1.87424 19.5777 3.05661 19.8861 4.15544 19.6805C4.29039 20.2995 4.60526 20.8886 5.10434 21.3684C5.76193 22.0024 6.61658 22.3301 7.47765 22.3537C7.50121 23.1826 7.84179 24.0051 8.49937 24.6392C9.15696 25.2732 10.0138 25.6031 10.8748 25.6245C10.8962 26.4534 11.239 27.2781 11.8966 27.9121C12.5261 28.5096 13.3508 28.8587 14.2179 28.8949C15.0851 28.9312 15.936 28.652 16.6132 28.1092L17.5492 29.0088C18.9201 30.3304 21.1435 30.3304 22.5143 29.0088C23.1698 28.3791 23.5104 27.5608 23.5403 26.734C24.4208 26.7113 25.2611 26.3607 25.8965 25.7509C26.552 25.119 26.8925 24.3007 26.9182 23.4739C27.7888 23.4434 28.6176 23.0934 29.2466 22.4908C29.7671 21.9917 30.0884 21.3727 30.2126 20.7258C30.7639 20.8225 31.3303 20.7883 31.866 20.6261C32.4018 20.4639 32.8919 20.1781 33.297 19.7919C33.6202 19.4856 33.8775 19.1168 34.0534 18.7078C34.2292 18.2989 34.3199 17.8584 34.3199 17.4132C34.3199 16.968 34.2292 16.5275 34.0534 16.1186C33.8775 15.7096 33.6202 15.3408 33.297 15.0345L31.7548 13.5502L32.0697 12.3721C32.7066 9.96357 32.3841 7.40188 31.1701 5.22643C29.3794 2.00061 25.9051 0.00856951 22.1481 0.00856951H19.5134C19.4 0.00294675 19.2864 9.00391e-05 19.1728 1.7072e-06H17.6113V1.7072e-06ZM22.8656 7.95959L28.0171 12.9226L28.0235 12.9268L31.7527 16.5211C31.8738 16.636 31.9703 16.7743 32.0362 16.9277C32.1022 17.0811 32.1362 17.2463 32.1362 17.4132C32.1362 17.5802 32.1022 17.7454 32.0362 17.8987C31.9703 18.0521 31.8738 18.1905 31.7527 18.3053C31.5024 18.5423 31.1709 18.6744 30.8263 18.6744C30.4816 18.6744 30.1501 18.5423 29.8999 18.3053L27.0703 15.5807C26.8629 15.3818 26.5866 15.2707 26.2992 15.2707C26.0118 15.2707 25.7355 15.3818 25.5281 15.5807L25.4981 15.6064C25.3971 15.7021 25.3167 15.8174 25.2617 15.9452C25.2068 16.073 25.1784 16.2106 25.1784 16.3497C25.1784 16.4888 25.2068 16.6265 25.2617 16.7543C25.3167 16.8821 25.3971 16.9973 25.4981 17.093L27.7043 19.2178C28.2184 19.7105 28.2184 20.5116 27.7043 21.0064C27.4768 21.222 27.1814 21.3516 26.8687 21.3731C26.556 21.3946 26.2456 21.3066 25.9908 21.1242C25.7781 20.9705 25.5182 20.8962 25.2564 20.9142C24.9947 20.9322 24.7474 21.0414 24.5578 21.2227C24.3724 21.4 24.2605 21.6404 24.2442 21.8964C24.228 22.1523 24.3085 22.405 24.47 22.6043C24.6622 22.8451 24.7571 23.1494 24.7356 23.4568C24.7142 23.7643 24.5781 24.0525 24.3543 24.2643C24.1236 24.4831 23.823 24.6134 23.5055 24.6322C23.1881 24.6511 22.8742 24.5572 22.6193 24.3671C22.4077 24.2084 22.1467 24.1295 21.8826 24.1444C21.6184 24.1593 21.368 24.267 21.1756 24.4485C20.9878 24.6255 20.8739 24.867 20.8569 25.1244C20.8398 25.3819 20.9207 25.6363 21.0835 25.8365C21.2803 26.0806 21.3779 26.3899 21.3568 26.7027C21.3358 27.0155 21.1977 27.3089 20.97 27.5244C20.7164 27.765 20.3802 27.8992 20.0307 27.8992C19.6812 27.8992 19.345 27.765 19.0915 27.5244L18.164 26.6312L18.5024 26.3056C18.8255 25.9994 19.0829 25.6306 19.2587 25.2216C19.4346 24.8126 19.5253 24.3721 19.5253 23.927C19.5253 23.4818 19.4346 23.0413 19.2587 22.6323C19.0829 22.2234 18.8255 21.8545 18.5024 21.5483C17.8623 20.9348 17.0155 20.5832 16.1291 20.563C16.1031 19.6956 15.7359 18.8736 15.1074 18.2754C14.4664 17.6621 13.6188 17.3113 12.7319 17.2922C12.7059 16.4248 12.3388 15.6028 11.7102 15.0046C11.2987 14.6129 10.7998 14.3249 10.2549 14.1643C9.70994 14.0038 9.1346 13.9753 8.57649 14.0814C8.43529 13.4368 8.10489 12.8491 7.62759 12.3935C7.2617 12.0443 6.8257 11.777 6.34855 11.6094C5.8714 11.4417 5.36403 11.3775 4.86016 11.421C4.69141 10.1659 4.82281 8.88857 5.24357 7.69406C5.66433 6.49954 6.36245 5.42187 7.28059 4.54956C8.20836 3.66319 9.32074 2.99305 10.538 2.58718C11.7552 2.1813 13.0472 2.04975 14.3213 2.20195L11.2047 4.49387C10.8059 4.78362 10.47 5.15117 10.2173 5.57434C9.96451 5.99751 9.80014 6.46752 9.73408 6.95599C9.66802 7.44445 9.70164 7.94124 9.83291 8.41635C9.96418 8.89146 10.1904 9.33504 10.4978 9.7203C11.1197 10.5 12.0182 11.0099 13.0064 11.1439C13.9946 11.278 14.9965 11.0259 15.8035 10.44L19.1793 7.96173H22.8635L22.8656 7.95959ZM12.4727 6.21816L18.0247 2.14198H19.1728C19.2779 2.14142 19.3829 2.14428 19.4877 2.15055H22.1481C25.1554 2.15055 27.8993 3.74632 29.298 6.26743C30.2447 7.97244 30.4932 9.95377 29.9984 11.8237L29.992 11.8451L24.0801 6.13248C23.8798 5.93149 23.6078 5.81824 23.324 5.81761H18.8258C18.5985 5.81805 18.3772 5.89082 18.194 6.02538L14.5355 8.71142C14.1761 8.96875 13.732 9.07903 13.294 9.0197C12.856 8.96037 12.4572 8.73592 12.1793 8.39227C12.0498 8.23271 11.9543 8.04832 11.8987 7.85046C11.8431 7.6526 11.8286 7.44546 11.8561 7.24179C11.8836 7.03812 11.9525 6.84223 12.0585 6.66618C12.1646 6.49014 12.3055 6.33767 12.4727 6.21816V6.21816ZM13.4195 24.6606L13.4409 24.6392L15.1074 23.0327L15.1267 23.0155C15.3783 22.7868 15.7071 22.6616 16.0472 22.6652C16.3873 22.6687 16.7134 22.8008 16.9602 23.0348C17.0813 23.1497 17.1778 23.2881 17.2437 23.4414C17.3097 23.5948 17.3437 23.76 17.3437 23.927C17.3437 24.0939 17.3097 24.2591 17.2437 24.4125C17.1778 24.5659 17.0813 24.7042 16.9602 24.8191L15.2916 26.4256C15.0413 26.6625 14.7098 26.7946 14.3652 26.7946C14.0205 26.7946 13.689 26.6625 13.4388 26.4256C13.3192 26.3124 13.2236 26.1764 13.1576 26.0256C13.0916 25.8748 13.0566 25.7122 13.0546 25.5476C13.0526 25.383 13.0837 25.2197 13.146 25.0673C13.2083 24.9149 13.3006 24.7766 13.4174 24.6606H13.4195ZM13.5844 21.529L13.563 21.5483L11.8966 23.1548L11.8751 23.1741C11.6234 23.4019 11.2948 23.5264 10.9552 23.5224C10.6157 23.5184 10.2901 23.3864 10.0437 23.1526C9.92395 23.039 9.82829 22.9023 9.76247 22.7509C9.69664 22.5995 9.66199 22.4363 9.66059 22.2712C9.65919 22.1061 9.69107 21.9423 9.75432 21.7898C9.81757 21.6373 9.9109 21.499 10.0287 21.3834L10.0437 21.3684L11.7102 19.7619L11.7252 19.7469C11.9765 19.5163 12.306 19.3896 12.6471 19.3924C12.9881 19.3952 13.3155 19.5272 13.563 19.7619C13.6829 19.8751 13.7788 20.0112 13.845 20.1623C13.9112 20.3133 13.9463 20.476 13.9483 20.6409C13.9503 20.8058 13.9191 20.9694 13.8566 21.1219C13.7941 21.2745 13.7015 21.4129 13.5844 21.529V21.529ZM10.168 18.2754L8.49937 19.8818L8.48438 19.8968C8.23305 20.1274 7.9036 20.2541 7.56252 20.2513C7.22144 20.2486 6.8941 20.1165 6.64656 19.8818C6.52542 19.767 6.42895 19.6286 6.36302 19.4752C6.29709 19.3218 6.26309 19.1566 6.26309 18.9897C6.26309 18.8228 6.29709 18.6576 6.36302 18.5042C6.42895 18.3508 6.52542 18.2124 6.64656 18.0976L8.31302 16.4911C8.56337 16.2535 8.89535 16.121 9.2405 16.121C9.58564 16.121 9.91763 16.2535 10.168 16.4911C10.2881 16.6048 10.384 16.7415 10.4501 16.8932C10.5161 17.0448 10.5508 17.2082 10.5522 17.3736C10.5536 17.539 10.5217 17.703 10.4582 17.8557C10.3948 18.0084 10.3011 18.1468 10.183 18.2625L10.168 18.2754V18.2754ZM6.08537 15.6643L4.41891 17.2708C4.16881 17.5088 3.83673 17.6416 3.49143 17.6416C3.14613 17.6416 2.81406 17.5088 2.56396 17.2708C2.44248 17.1559 2.34572 17.0174 2.27959 16.8638C2.21346 16.7102 2.17935 16.5448 2.17935 16.3776C2.17935 16.2103 2.21346 16.0449 2.27959 15.8913C2.34572 15.7377 2.44248 15.5993 2.56396 15.4844L4.23256 13.8779C4.48279 13.6409 4.81433 13.5088 5.15896 13.5088C5.5036 13.5088 5.83513 13.6409 6.08537 13.8779C6.20684 13.9928 6.3036 14.1313 6.36973 14.2848C6.43586 14.4384 6.46997 14.6039 6.46997 14.7711C6.46997 14.9383 6.43586 15.1037 6.36973 15.2573C6.3036 15.4109 6.20684 15.5494 6.08537 15.6643V15.6643Z" fill="#96C0C0"/>
</svg>
