<svg width="15" height="16" viewBox="0 0 15 16" fill="none" xmlns="http://www.w3.org/2000/svg">
<path d="M1.44329 15.9998C1.29206 16.0025 1.14083 15.9767 0.998503 15.9233L8.1631 8.75604L10.5347 11.1303L2.30172 15.7561C2.04096 15.909 1.74551 15.9929 1.44329 15.9998V15.9998ZM0.407828 15.4082C0.262186 15.1445 0.189705 14.8466 0.197889 14.5454V1.46423C0.196687 1.26566 0.226706 1.06814 0.286846 0.878895L7.61068 8.20451L0.405159 15.41L0.407828 15.4082V15.4082ZM11.2419 10.7309L8.71464 8.2054L11.5017 5.41926L13.9773 6.80966C14.4524 7.02316 14.7708 7.48129 14.8029 8.0008C14.7871 8.25601 14.7017 8.50202 14.556 8.71216C14.4104 8.92229 14.2099 9.08853 13.9764 9.19282L11.2419 10.7309ZM8.1631 7.6503L0.744086 0.232178C0.947797 0.080951 1.19421 0.00088957 1.44774 0C1.74663 0.0106748 2.03841 0.095184 2.29728 0.246411L10.7936 5.02162L8.16399 7.6503H8.1631V7.6503Z" fill="white"/>
</svg>
